<svg width="98" height="98" viewBox="0 0 98 98" fill="none" xmlns="http://www.w3.org/2000/svg">
<path d="M49 0L64.1418 2.39823L77.8015 9.35817L88.6418 20.1985L95.6018 33.8582L98 49L95.6018 64.1418L88.6418 77.8015L77.8015 88.6418L64.1418 95.6018L49 98L33.8582 95.6018L20.1985 88.6418L9.35817 77.8015L2.39823 64.1418L0 49L2.39823 33.8582L9.35817 20.1985L20.1985 9.35817L33.8582 2.39823L49 0Z" fill="#FFFEFF"/>
<path d="M49 9L61.3607 10.9577L72.5114 16.6393L81.3607 25.4886L87.0423 36.6393L89 49L87.0423 61.3607L81.3607 72.5114L72.5114 81.3607L61.3607 87.0423L49 89L36.6393 87.0423L25.4886 81.3607L16.6393 72.5114L10.9577 61.3607L9 49L10.9577 36.6393L16.6393 25.4886L25.4886 16.6393L36.6393 10.9577L49 9Z" fill="#9E5CAB"/>
<path d="M48.5 35L34 49.5L48.5 64" stroke="#FFFEFF" stroke-width="8" stroke-linecap="round" stroke-linejoin="round"/>
<path d="M34 49.5H67.5" stroke="#FFFEFF" stroke-width="8" stroke-linecap="round" stroke-linejoin="round"/>
</svg>
