<svg width="98" height="98" viewBox="0 0 98 98" fill="none" xmlns="http://www.w3.org/2000/svg">
<path d="M49 0L64.1418 2.39823L77.8015 9.35817L88.6418 20.1985L95.6018 33.8582L98 49L95.6018 64.1418L88.6418 77.8015L77.8015 88.6418L64.1418 95.6018L49 98L33.8582 95.6018L20.1985 88.6418L9.35817 77.8015L2.39823 64.1418L0 49L2.39823 33.8582L9.35817 20.1985L20.1985 9.35817L33.8582 2.39823L49 0Z" fill="#FFFEFF"/>
<path d="M49 9L61.3607 10.9577L72.5114 16.6393L81.3607 25.4886L87.0423 36.6393L89 49L87.0423 61.3607L81.3607 72.5114L72.5114 81.3607L61.3607 87.0423L49 89L36.6393 87.0423L25.4886 81.3607L16.6393 72.5114L10.9577 61.3607L9 49L10.9577 36.6393L16.6393 25.4886L25.4886 16.6393L36.6393 10.9577L49 9Z" fill="#9E5CAB"/>
<path d="M27 32.9536V44.7036H38.75" stroke="white" stroke-width="6" stroke-linecap="round" stroke-linejoin="round"/>
<path d="M70.084 64.2871V52.5371H58.334" stroke="white" stroke-width="6" stroke-linecap="round" stroke-linejoin="round"/>
<path d="M65.1679 42.7454C64.1747 39.9387 62.4867 37.4293 60.2614 35.4514C58.0361 33.4735 55.346 32.0916 52.4421 31.4345C49.5382 30.7775 46.5153 30.8668 43.6553 31.694C40.7952 32.5213 38.1914 34.0596 36.0867 36.1654L27 44.7037M70.0833 52.537L60.9967 61.0754C58.892 63.1811 56.2881 64.7194 53.4281 65.5467C50.5681 66.374 47.5451 66.4632 44.6412 65.8062C41.7374 65.1492 39.0473 63.7672 36.822 61.7893C34.5966 59.8115 32.9086 57.3021 31.9154 54.4954" stroke="white" stroke-width="6" stroke-linecap="round" stroke-linejoin="round"/>
</svg>
