<svg width="54" height="54" viewBox="0 0 54 54" fill="none" xmlns="http://www.w3.org/2000/svg">
<path d="M27 0L35.3435 1.32147L42.8702 5.15654L48.8435 11.1298L52.6785 18.6565L54 27L52.6785 35.3435L48.8435 42.8702L42.8702 48.8435L35.3435 52.6785L27 54L18.6565 52.6785L11.1298 48.8435L5.15654 42.8702L1.32147 35.3435L0 27L1.32147 18.6565L5.15654 11.1298L11.1298 5.15654L18.6565 1.32147L27 0Z" fill="#FFFEFF"/>
<path d="M26.9998 4.95923L33.8108 6.03798L39.9551 9.16865L44.8312 14.0448L47.9619 20.1891L49.0406 27L47.9619 33.811L44.8312 39.9553L39.9551 44.8314L33.8108 47.9621L26.9998 49.0409L20.1888 47.9621L14.0445 44.8314L9.16841 39.9553L6.03774 33.811L4.95898 27L6.03774 20.1891L9.16841 14.0448L14.0445 9.16865L20.1888 6.03798L26.9998 4.95923Z" fill="#DBDBDB"/>
<path d="M30 19L22 27.5L30 36" stroke="#626262" stroke-width="4" stroke-linecap="round" stroke-linejoin="round"/>
</svg>
