<svg width="248" height="254" viewBox="0 0 248 254" fill="none" xmlns="http://www.w3.org/2000/svg">
<circle cx="124" cy="130" r="124" fill="#D3D3D3"/>
<circle cx="124" cy="124" r="118" fill="#7DB876" stroke="white" stroke-width="12"/>
<circle cx="124" cy="124" r="118" fill="#9AA999" stroke="white" stroke-width="12"/>
<path d="M234 122.4C234 138.635 181.251 189.5 120.5 189.5C59.7487 189.5 14 142.424 14 122.4C14 61.4278 63.2487 12 124 12C184.751 12 234 61.4278 234 122.4Z" fill="url(#paint0_linear_3478_61)"/>
<path fill-rule="evenodd" clip-rule="evenodd" d="M235.842 118C232.724 177.066 183.843 224 124 224C64.157 224 15.2759 177.066 12.158 118C12.0531 119.987 12 121.987 12 124C12 185.856 62.1441 236 124 236C185.856 236 236 185.856 236 124C236 121.987 235.947 119.987 235.842 118Z" fill="#7C8D7A"/>
<g filter="url(#filter0_f_3478_61)">
<circle cx="86.5" cy="126.5" r="13.5" fill="#7C8D7A"/>
</g>
<g filter="url(#filter1_f_3478_61)">
<circle cx="123.5" cy="126.5" r="13.5" fill="#7C8D7A"/>
</g>
<g filter="url(#filter2_f_3478_61)">
<circle cx="160.502" cy="126.5" r="13.5" fill="#7C8D7A"/>
</g>
<circle cx="86.5" cy="125.5" r="13.5" fill="#D3DAD3"/>
<circle cx="123.5" cy="125.5" r="13.5" fill="#D3DAD3"/>
<circle cx="160.502" cy="125.5" r="13.5" fill="#D3DAD3"/>
<circle cx="86.5" cy="123.5" r="13.5" fill="white"/>
<circle cx="123.5" cy="123.5" r="13.5" fill="white"/>
<circle cx="160.502" cy="123.5" r="13.5" fill="white"/>
<defs>
<filter id="filter0_f_3478_61" x="71" y="111" width="31" height="31" filterUnits="userSpaceOnUse" color-interpolation-filters="sRGB">
<feFlood flood-opacity="0" result="BackgroundImageFix"/>
<feBlend mode="normal" in="SourceGraphic" in2="BackgroundImageFix" result="shape"/>
<feGaussianBlur stdDeviation="1" result="effect1_foregroundBlur_3478_61"/>
</filter>
<filter id="filter1_f_3478_61" x="108" y="111" width="31" height="31" filterUnits="userSpaceOnUse" color-interpolation-filters="sRGB">
<feFlood flood-opacity="0" result="BackgroundImageFix"/>
<feBlend mode="normal" in="SourceGraphic" in2="BackgroundImageFix" result="shape"/>
<feGaussianBlur stdDeviation="1" result="effect1_foregroundBlur_3478_61"/>
</filter>
<filter id="filter2_f_3478_61" x="145.002" y="111" width="31" height="31" filterUnits="userSpaceOnUse" color-interpolation-filters="sRGB">
<feFlood flood-opacity="0" result="BackgroundImageFix"/>
<feBlend mode="normal" in="SourceGraphic" in2="BackgroundImageFix" result="shape"/>
<feGaussianBlur stdDeviation="1" result="effect1_foregroundBlur_3478_61"/>
</filter>
<linearGradient id="paint0_linear_3478_61" x1="124" y1="12" x2="124" y2="150" gradientUnits="userSpaceOnUse">
<stop offset="0.515" stop-color="#A9B7A8"/>
<stop offset="1" stop-color="#A9B7A8" stop-opacity="0"/>
</linearGradient>
</defs>
</svg>
